<?xml version="1.0" encoding="UTF-8" standalone="no"?>
<!DOCTYPE svg PUBLIC "-//W3C//DTD SVG 1.0//EN" "http://www.w3.org/TR/2001/PR-SVG-20010719/DTD/svg10.dtd">
<svg width="49cm" height="31cm" viewBox="97 -21 965 609" xmlns="http://www.w3.org/2000/svg" xmlns:xlink="http://www.w3.org/1999/xlink">
  <g>
    <rect style="fill: #ffffff" x="98" y="0.7502" width="963" height="586.25"/>
    <rect style="fill: none; fill-opacity:0; stroke-width: 2; stroke: #000000" x="98" y="0.7502" width="963" height="586.25"/>
    <rect style="fill: #ffffff" x="98" y="-19.2498" width="42.5" height="20"/>
    <rect style="fill: none; fill-opacity:0; stroke-width: 2; stroke: #000000" x="98" y="-19.2498" width="42.5" height="20"/>
    <text font-size="12.7998" style="fill: #000000;text-anchor:start;font-family:monospace;font-style:normal;font-weight:normal" x="100" y="-5.2498">model</text>
  </g>
  <g>
    <rect style="fill: #ffffff" x="554.586" y="38.728" width="125.5" height="44"/>
    <rect style="fill: none; fill-opacity:0; stroke-width: 2; stroke: #000000" x="554.586" y="38.728" width="125.5" height="44"/>
    <text font-size="12.8" style="fill: #000000;text-anchor:middle;font-family:monospace;font-style:normal;font-weight:normal" x="617.336" y="53.928">&lt;&lt;enumeration&gt;&gt;</text>
    <text font-size="16" style="fill: #000000;text-anchor:middle;font-family:sans-serif;font-style:normal;font-weight:700" x="617.336" y="74.728">Checker</text>
    <rect style="fill: #ffffff" x="554.586" y="82.728" width="125.5" height="52"/>
    <rect style="fill: none; fill-opacity:0; stroke-width: 2; stroke: #000000" x="554.586" y="82.728" width="125.5" height="52"/>
    <text font-size="12.8" style="fill: #000000;text-anchor:start;font-family:monospace;font-style:normal;font-weight:normal" x="557.586" y="95.928">+NONE</text>
    <text font-size="12.8" style="fill: #000000;text-anchor:start;font-family:monospace;font-style:normal;font-weight:normal" x="557.586" y="111.928">+RED</text>
    <text font-size="12.8" style="fill: #000000;text-anchor:start;font-family:monospace;font-style:normal;font-weight:normal" x="557.586" y="127.928">+YELLOW</text>
    <rect style="fill: #ffffff" x="554.586" y="134.728" width="125.5" height="8"/>
    <rect style="fill: none; fill-opacity:0; stroke-width: 2; stroke: #000000" x="554.586" y="134.728" width="125.5" height="8"/>
  </g>
  <g>
    <rect style="fill: #ffffff" x="169.284" y="415.014" width="79.3" height="28"/>
    <rect style="fill: none; fill-opacity:0; stroke-width: 2; stroke: #000000" x="169.284" y="415.014" width="79.3" height="28"/>
    <text font-size="16" style="fill: #000000;text-anchor:middle;font-family:sans-serif;font-style:normal;font-weight:700" x="208.934" y="435.014">Rules</text>
    <rect style="fill: #ffffff" x="169.284" y="443.014" width="79.3" height="52"/>
    <rect style="fill: none; fill-opacity:0; stroke-width: 2; stroke: #000000" x="169.284" y="443.014" width="79.3" height="52"/>
    <text font-size="12.8" style="fill: #000000;text-anchor:start;font-family:monospace;font-style:normal;font-weight:normal" x="172.284" y="456.214">+COLUMNS</text>
    <text font-size="12.8" style="fill: #000000;text-anchor:start;font-family:monospace;font-style:normal;font-weight:normal" x="172.284" y="472.214">+ROWS</text>
    <text font-size="12.8" style="fill: #000000;text-anchor:start;font-family:monospace;font-style:normal;font-weight:normal" x="172.284" y="488.214">+IN_A_ROW</text>
    <rect style="fill: #ffffff" x="169.284" y="495.014" width="79.3" height="8"/>
    <rect style="fill: none; fill-opacity:0; stroke-width: 2; stroke: #000000" x="169.284" y="495.014" width="79.3" height="8"/>
  </g>
  <g>
    <rect style="fill: #ffffff" x="543.634" y="355.912" width="56.2" height="28"/>
    <rect style="fill: none; fill-opacity:0; stroke-width: 2; stroke: #000000" x="543.634" y="355.912" width="56.2" height="28"/>
    <text font-size="16" style="fill: #000000;text-anchor:middle;font-family:sans-serif;font-style:normal;font-weight:700" x="571.734" y="375.912">Grid</text>
    <rect style="fill: #ffffff" x="543.634" y="383.912" width="56.2" height="84"/>
    <rect style="fill: none; fill-opacity:0; stroke-width: 2; stroke: #000000" x="543.634" y="383.912" width="56.2" height="84"/>
    <text font-size="12.8" style="fill: #000000;text-anchor:start;font-family:monospace;font-style:normal;font-weight:normal" x="546.634" y="397.112">-UP</text>
    <text font-size="12.8" style="fill: #000000;text-anchor:start;font-family:monospace;font-style:normal;font-weight:normal" x="546.634" y="413.112">-DOWN</text>
    <text font-size="12.8" style="fill: #000000;text-anchor:start;font-family:monospace;font-style:normal;font-weight:normal" x="546.634" y="429.112">-LEFT</text>
    <text font-size="12.8" style="fill: #000000;text-anchor:start;font-family:monospace;font-style:normal;font-weight:normal" x="546.634" y="445.112">-RIGHT</text>
    <text font-size="12.8" style="fill: #000000;text-anchor:start;font-family:monospace;font-style:normal;font-weight:normal" x="546.634" y="461.112">-grid</text>
    <rect style="fill: #ffffff" x="543.634" y="467.912" width="56.2" height="8"/>
    <rect style="fill: none; fill-opacity:0; stroke-width: 2; stroke: #000000" x="543.634" y="467.912" width="56.2" height="8"/>
  </g>
  <g>
    <rect style="fill: #ffffff" x="918.172" y="378.905" width="117.8" height="28"/>
    <rect style="fill: none; fill-opacity:0; stroke-width: 2; stroke: #000000" x="918.172" y="378.905" width="117.8" height="28"/>
    <text font-size="16" style="fill: #000000;text-anchor:middle;font-family:sans-serif;font-style:normal;font-weight:700" x="977.072" y="398.905">Player</text>
    <rect style="fill: #ffffff" x="918.172" y="406.905" width="117.8" height="52"/>
    <rect style="fill: none; fill-opacity:0; stroke-width: 2; stroke: #000000" x="918.172" y="406.905" width="117.8" height="52"/>
    <text font-size="12.8" style="fill: #000000;text-anchor:start;font-family:monospace;font-style:normal;font-weight:normal" x="921.172" y="420.105">+name: String</text>
    <text font-size="12.8" style="fill: #000000;text-anchor:start;font-family:monospace;font-style:normal;font-weight:normal" x="921.172" y="436.105">+color: Check</text>
    <text font-size="12.8" style="fill: #000000;text-anchor:start;font-family:monospace;font-style:normal;font-weight:normal" x="921.172" y="452.105">+wins: Integer</text>
    <rect style="fill: #ffffff" x="918.172" y="458.905" width="117.8" height="8"/>
    <rect style="fill: none; fill-opacity:0; stroke-width: 2; stroke: #000000" x="918.172" y="458.905" width="117.8" height="8"/>
  </g>
  <g>
    <polyline style="fill: none; fill-opacity:0; stroke-width: 2; stroke: #000000" points="891.993,422.905 791.625,422.905 791.625,60.728 680.086,60.728 "/>
    <polygon style="fill: #ffffff" points="917.165,422.905 903.165,427.705 889.165,422.905 903.165,418.105 "/>
    <polygon style="fill: none; fill-opacity:0; stroke-width: 2; stroke: #000000" points="917.165,422.905 903.165,427.705 889.165,422.905 903.165,418.105 "/>
    <text font-size="12.7998" style="fill: #000000;text-anchor:start;font-family:monospace;font-style:normal;font-weight:normal" x="793.625" y="237.816">owned</text>
    <text font-size="12.7998" style="fill: #000000;text-anchor:end;font-family:monospace;font-style:normal;font-weight:normal" x="885.165" y="418.905">1</text>
    <text font-size="12.7998" style="fill: #000000;text-anchor:start;font-family:monospace;font-style:normal;font-weight:normal" x="684.086" y="56.728">1</text>
  </g>
  <g>
    <polyline style="fill: none; fill-opacity:0; stroke-width: 2; stroke: #000000" points="571.734,330.74 571.734,180.75 617.336,180.75 617.336,143.695 "/>
    <polygon style="fill: #ffffff" points="571.734,355.912 566.934,341.912 571.734,327.912 576.534,341.912 "/>
    <polygon style="fill: none; fill-opacity:0; stroke-width: 2; stroke: #000000" points="571.734,355.912 566.934,341.912 571.734,327.912 576.534,341.912 "/>
    <text font-size="12.7998" style="fill: #000000;text-anchor:middle;font-family:monospace;font-style:normal;font-weight:normal" x="594.535" y="176.75">contains</text>
    <text font-size="12.7998" style="fill: #000000;text-anchor:start;font-family:monospace;font-style:normal;font-weight:normal" x="582.734" y="351.912">1</text>
    <text font-size="12.7998" style="fill: #000000;text-anchor:start;font-family:monospace;font-style:normal;font-weight:normal" x="621.336" y="155.695">*</text>
  </g>
  <g>
    <line style="fill: none; fill-opacity:0; stroke-width: 2; stroke-dasharray: 8; stroke: #000000" x1="543.634" y1="457.912" x2="256.272" y2="458.858"/>
    <polyline style="fill: none; fill-opacity:0; stroke-width: 2; stroke: #000000" points="268.902,453.817 252.919,458.869 268.935,463.816 "/>
    <text font-size="12.7998" style="fill: #000000;text-anchor:start;font-family:monospace;font-style:normal;font-weight:normal" x="396.602" y="454.396">{use}</text>
  </g>
  <g>
    <line style="fill: none; fill-opacity:0; stroke-width: 2; stroke-dasharray: 8; stroke: #000000" x1="600.84" y1="418.684" x2="911.497" y2="448.269"/>
    <polyline style="fill: none; fill-opacity:0; stroke-width: 2; stroke: #000000" points="898.433,452.047 914.835,448.587 899.381,442.092 "/>
    <text font-size="12.7998" style="fill: #000000;text-anchor:start;font-family:monospace;font-style:normal;font-weight:normal" x="772.936" y="436.281">{use}</text>
  </g>
</svg>
